<?xml version="1.0" standalone="no"?>
<!DOCTYPE svg PUBLIC "-//W3C//DTD SVG 20010904//EN"
 "http://www.w3.org/TR/2001/REC-SVG-20010904/DTD/svg10.dtd">
<svg version="1.0" xmlns="http://www.w3.org/2000/svg"
 width="1024.000000pt" height="554.000000pt" viewBox="0 0 1024.000000 554.000000"
 preserveAspectRatio="xMidYMid meet">

<g transform="translate(0.000000,554.000000) scale(0.100000,-0.100000)"
fill="#000000" stroke="none">
<path d="M5030 5480 c-124 -31 -675 -171 -1225 -310 -550 -139 -1002 -254
-1003 -255 -2 -2 -9 -96 -15 -210 -12 -225 -1 -561 28 -834 9 -79 14 -145 13
-146 -3 -2 -473 -55 -491 -55 -4 0 -7 -13 -7 -30 l0 -30 2935 0 2935 0 0 29
c0 33 26 28 -297 62 -134 14 -213 26 -213 33 0 6 20 153 44 326 57 404 110
819 105 824 -4 4 -2580 657 -2583 655 0 0 -102 -27 -226 -59z m1324 -496 c600
-151 1107 -279 1126 -284 l36 -10 -3 -67 c-11 -226 -73 -857 -86 -869 -1 -2
-38 2 -82 7 -44 6 -533 59 -1086 119 l-1007 109 -963 -104 c-530 -58 -1013
-111 -1074 -119 -60 -9 -111 -14 -112 -12 -2 2 -10 68 -18 147 -22 219 -39
631 -29 723 l9 80 1095 277 c602 153 1097 278 1099 278 2 1 495 -123 1095
-275z"/>
<path d="M795 3342 c-83 -39 -124 -114 -112 -204 11 -84 66 -123 218 -158 116
-26 152 -48 147 -93 -5 -47 -46 -72 -121 -72 -73 1 -115 23 -124 67 -5 27 -7
28 -71 28 l-65 0 6 -35 c9 -54 43 -102 95 -132 39 -23 60 -28 139 -31 101 -5
156 9 209 50 34 27 63 92 64 141 0 89 -51 145 -157 172 -155 39 -203 56 -213
75 -16 29 -12 49 15 75 20 21 34 25 84 25 49 0 65 -4 90 -26 17 -14 31 -34 31
-45 0 -17 8 -19 66 -19 l66 0 -7 38 c-10 56 -41 99 -93 129 -62 37 -204 44
-267 15z"/>
<path d="M2037 3350 c-59 -15 -91 -36 -134 -84 -52 -59 -73 -126 -73 -235 0
-124 20 -182 83 -246 63 -63 112 -79 224 -74 66 3 86 9 120 31 53 35 91 85
108 143 l14 45 -64 0 -65 0 -20 -40 c-27 -52 -69 -74 -134 -67 -86 8 -136 83
-136 207 0 75 15 124 51 165 68 77 179 63 225 -27 14 -26 19 -28 80 -28 l66 0
-7 28 c-18 75 -73 140 -140 168 -43 18 -151 25 -198 14z"/>
<path d="M5641 3333 c-68 -35 -101 -90 -101 -168 0 -101 56 -147 221 -185 116
-26 152 -48 147 -93 -5 -47 -46 -72 -121 -72 -72 1 -110 20 -126 66 -10 28
-13 29 -70 29 -57 0 -61 -2 -61 -23 0 -45 43 -111 94 -141 42 -27 59 -31 142
-34 105 -5 160 9 214 54 60 51 78 172 33 232 -34 46 -66 61 -187 92 -66 17
-130 37 -143 45 -30 20 -30 59 2 90 20 21 34 25 84 25 49 0 65 -4 90 -26 17
-14 31 -34 31 -45 0 -17 8 -19 66 -19 l66 0 -7 38 c-10 56 -41 99 -93 129 -39
23 -60 28 -137 31 -84 4 -94 2 -144 -25z"/>
<path d="M8808 3347 c-26 -8 -55 -20 -65 -27 -49 -37 -77 -69 -101 -115 -25
-46 -27 -59 -27 -175 0 -117 2 -128 27 -176 32 -62 93 -116 147 -132 64 -20
178 -15 227 9 66 31 112 91 138 177 7 21 5 22 -58 22 -66 0 -66 0 -80 -35 -42
-100 -190 -99 -249 3 -44 75 -30 235 25 298 64 73 183 62 222 -21 17 -35 17
-35 82 -35 l66 0 -7 33 c-14 65 -80 140 -147 166 -47 18 -150 22 -200 8z"/>
<path d="M1280 3030 l0 -310 235 0 235 0 0 55 0 55 -170 0 -170 0 0 80 0 80
150 0 150 0 0 55 0 55 -150 0 -150 0 0 65 0 65 163 2 162 3 3 53 3 52 -230 0
-231 0 0 -310z"/>
<path d="M2482 3091 l3 -249 30 -43 c45 -64 91 -83 205 -87 88 -3 99 -2 150
25 43 23 59 39 80 78 24 48 25 55 28 287 l4 238 -66 0 -66 0 0 -192 c-1 -106
-5 -213 -9 -238 -13 -62 -47 -90 -112 -90 -110 0 -119 22 -119 305 l0 215 -66
0 -65 0 3 -249z"/>
<path d="M3102 3033 l3 -308 62 -3 62 -3 3 123 3 123 92 0 c122 0 134 -11 140
-122 7 -129 3 -123 83 -123 54 0 70 3 70 14 0 8 -4 18 -10 21 -5 3 -10 39 -10
78 0 92 -14 141 -47 167 -28 22 -28 22 3 38 55 29 73 161 31 223 -12 18 -38
44 -56 56 -32 22 -43 23 -233 23 l-198 0 2 -307z m359 178 c29 -36 25 -95 -7
-120 -23 -18 -41 -21 -125 -21 l-99 0 0 78 c0 43 3 82 8 86 4 5 51 6 106 4 88
-3 100 -6 117 -27z"/>
<path d="M3900 3337 c0 -2 -30 -86 -66 -188 -36 -101 -86 -239 -110 -306 l-43
-123 69 0 68 0 22 65 22 65 113 0 113 0 22 -65 22 -65 70 0 c52 0 69 3 66 13
-3 6 -51 146 -109 309 l-104 298 -77 0 c-43 0 -78 -1 -78 -3z m114 -257 c20
-60 36 -112 36 -115 0 -3 -34 -5 -76 -5 -57 0 -75 3 -71 13 2 6 19 58 38 115
18 56 34 102 36 102 1 0 18 -49 37 -110z"/>
<path d="M4682 3033 l3 -308 63 -3 62 -3 0 311 0 310 -65 0 -65 0 2 -307z"/>
<path d="M4930 3030 l0 -310 60 0 60 0 0 217 c0 153 3 214 11 206 5 -5 63
-102 127 -214 l117 -204 68 -3 67 -3 0 311 0 310 -60 0 -60 0 -2 -212 -3 -213
-120 212 -120 213 -72 0 -73 0 0 -310z"/>
<path d="M6140 3103 c0 -209 3 -243 19 -278 37 -81 103 -115 226 -115 126 0
189 33 229 120 18 40 21 69 24 278 l4 232 -70 0 -71 0 -3 -236 -3 -236 -28
-24 c-22 -18 -40 -24 -78 -24 -111 0 -119 19 -119 300 l0 220 -65 0 -65 0 0
-237z"/>
<path d="M6762 3033 l3 -308 62 -3 62 -3 3 123 3 123 94 0 c118 0 125 -7 135
-130 4 -48 10 -93 13 -101 8 -20 143 -20 143 0 0 8 -4 18 -10 21 -5 3 -10 32
-11 63 -1 100 -14 154 -43 179 l-27 23 29 25 c41 34 55 75 50 139 -3 40 -12
65 -33 91 -45 59 -70 65 -285 65 l-190 0 2 -307z m327 196 c37 -13 51 -35 51
-83 0 -25 -7 -40 -26 -55 -23 -18 -41 -21 -125 -21 l-99 0 0 78 c0 43 3 82 7
85 11 11 157 8 192 -4z"/>
<path d="M7555 3328 c-2 -7 -50 -141 -106 -298 -56 -157 -104 -291 -106 -297
-4 -10 13 -13 65 -13 l70 0 22 65 22 65 113 0 114 0 19 -62 18 -63 73 -3 c66
-3 72 -1 67 15 -3 10 -52 149 -109 308 l-103 290 -77 3 c-56 2 -79 -1 -82 -10z
m115 -240 c18 -55 34 -107 37 -115 4 -10 -11 -13 -71 -13 -42 0 -76 3 -76 7 0
13 71 223 75 223 2 0 18 -46 35 -102z"/>
<path d="M8010 3030 l0 -310 60 0 60 0 2 215 3 216 124 -216 124 -215 63 0 64
0 0 310 0 310 -60 0 -60 0 0 -212 0 -213 -121 213 -121 212 -69 0 -69 0 0
-310z"/>
<path d="M9260 3030 l0 -310 235 0 235 0 0 55 0 55 -170 0 -170 0 0 80 0 80
150 0 150 0 0 55 0 55 -150 0 -150 0 0 65 0 65 165 0 165 0 0 55 0 55 -230 0
-230 0 0 -310z"/>
<path d="M2330 2371 c0 -35 -39 -28 428 -77 l362 -39 16 -50 c95 -289 283
-629 498 -900 117 -147 427 -452 601 -591 83 -66 217 -166 299 -223 156 -110
713 -461 729 -461 15 0 342 203 572 355 355 235 556 395 801 640 352 352 590
716 735 1125 l37 105 383 42 c211 23 390 42 397 42 7 1 12 14 12 31 l0 30
-2935 0 -2935 0 0 -29z m1280 -171 c30 -5 412 -48 848 -95 l794 -85 791 85
c436 47 845 92 910 100 170 22 160 24 141 -27 -39 -103 -169 -353 -242 -463
-122 -187 -229 -315 -426 -510 -292 -291 -520 -462 -1082 -813 l-81 -50 -198
124 c-314 198 -518 341 -702 495 -389 326 -648 640 -832 1006 -51 103 -111
238 -111 251 0 5 116 -6 190 -18z"/>
</g>
</svg>
